<svg xmlns="http://www.w3.org/2000/svg" viewBox="0 0 21 21"><path d="M18.5 5h-7.8L10 3.3c-.1-.2-.3-.3-.5-.3H4.3c-.1 0-.3.1-.4.3-.4.8-.6 1.3-.8 1.7h-.6C1.7 5 1 5.7 1 6.5v10c0 .8.7 1.5 1.5 1.5h16c.8 0 1.5-.7 1.5-1.5v-10c0-.8-.7-1.5-1.5-1.5zm.5 11.5c0 .3-.2.5-.5.5h-16c-.3 0-.5-.2-.5-.5v-10c0-.3.2-.5.5-.5h.9c.2 0 .4-.1.5-.3 0 0 .5-1.1.8-1.7h4.5l.8 1.7c.1.2.2.3.4.3h8.1c.3 0 .5.2.5.5v10z"/><path d="M13 11h-2V9c0-.3-.2-.5-.5-.5s-.5.2-.5.5v2H8c-.3 0-.5.2-.5.5s.2.5.5.5h2v2c0 .3.2.5.5.5s.5-.2.5-.5v-2h2c.3 0 .5-.2.5-.5s-.2-.5-.5-.5z"/></svg>