<svg xmlns="http://www.w3.org/2000/svg" viewBox="0 0 21 21"><path d="M19.8 6.7c0-.1-.1-.2-.2-.3l-3.3-1.9c-.2-.1-.5-.1-.7.2-.4.7-1.3.9-1.9.5-.4-.2-.6-.5-.7-.9-.1-.4 0-.7.1-1 .1-.1.1-.3.1-.4 0-.1-.1-.2-.2-.3L9.6.7c-.2-.2-.5-.1-.7.2L1.3 14c-.1.1-.1.3-.1.4 0 .1.1.2.2.3l3.3 1.9c.2.1.5.1.7-.2.4-.7 1.3-.9 1.9-.5.4.1.6.4.7.8.1.4 0 .7-.1 1-.1.1-.1.3-.1.4 0 .1.1.2.2.3l3.3 1.9c.1 0 .2.1.2.1.2 0 .3-.1.4-.2L19.7 7c.1-.1.1-.2.1-.3zm-8.3 12.5L9 17.8c.1-.4.2-.9 0-1.4-.2-.6-.6-1.1-1.1-1.5-1-.6-2.3-.3-3 .5L2.4 14 9.5 1.8 12 3.2c-.1.4-.2.9 0 1.3.2.6.6 1.1 1.1 1.5 1 .6 2.3.3 3-.5L18.6 7l-7.1 12.2z"/><path d="M12.8 10.9l-1.5-.8.8-1.5c.2-.2.1-.5-.1-.6-.2-.1-.5-.1-.7.2l-.9 1.5-1.5-.9c-.2-.2-.5-.1-.6.1-.2.3-.1.6.2.7l1.5.8-.8 1.5c-.1.2-.1.5.2.7.1 0 .2.1.3.1.2 0 .3-.1.4-.2L11 11l1.5.8c.1 0 .2.1.2.1.2 0 .3-.1.4-.3 0-.2-.1-.5-.3-.7z"/></svg>