<svg width="18" height="20" viewBox="0 0 18 20" fill="none" xmlns="http://www.w3.org/2000/svg">
<path d="M11.5241 4.42517C12.2689 4.78789 13.1667 4.47816 13.5295 3.73336C13.6504 3.48511 13.9496 3.38184 14.1979 3.50276L16.8951 4.81629C17.3916 5.0581 17.5981 5.65663 17.3563 6.15318L11.2264 18.7399C10.9846 19.2364 10.3861 19.4429 9.88954 19.2011L7.19239 17.8876C6.94411 17.7667 6.84089 17.4674 6.96179 17.2191C7.32451 16.4743 7.01478 15.5765 6.26998 15.2138C5.52518 14.8511 4.62736 15.1608 4.26463 15.9056C4.14373 16.1538 3.84446 16.2571 3.59619 16.1362L0.899033 14.8227C0.402508 14.5808 0.196002 13.9823 0.437827 13.4858L6.56765 0.899051C6.80947 0.402499 7.40802 0.196033 7.90454 0.437844L10.6017 1.75138C10.85 1.87229 10.9532 2.17158 10.8323 2.41983C10.4696 3.16463 10.7793 4.06244 11.5241 4.42517Z" fill="white"/>
<path d="M3.50275 7.19238L0.437836 13.4857C0.196011 13.9823 0.402517 14.5808 0.899042 14.8226L3.59619 16.1362C3.84447 16.2571 4.14374 16.1538 4.26464 15.9056C4.62737 15.1608 5.52518 14.851 6.26998 15.2138C7.01479 15.5765 7.32452 16.4743 6.96179 17.2191C6.8409 17.4673 6.94412 17.7666 7.1924 17.8875L9.88955 19.2011C10.3861 19.4429 10.9846 19.2364 11.2264 18.7399L14.2914 12.4465L3.50275 7.19238Z" fill="#D2D2D2"/>
</svg>
