<svg xmlns="http://www.w3.org/2000/svg" viewBox="0 0 89.40729 84.19954"><defs><style>.a{fill:#231f20}</style></defs><title>edit-folder</title><path d="M83.364 18.118l.001-.002 5.65-7.648a2 2 0 0 0-.42-2.797L78.744.39a2 2 0 0 0-2.797.42L55.391 28.637H35.677l-1.655-7.538a2 2 0 0 0-1.953-1.57H10a2 2 0 0 0-1.954 1.57l-1.654 7.538H2a2 2 0 0 0-1.999 2.078l2 51.563A2 2 0 0 0 4 84.2h78.127a2 2 0 0 0 1.998-1.923l2-51.563a1.999 1.999 0 0 0-1.998-2.078h-8.533l7.769-10.517zm-1.316 14.518L80.203 80.2H5.923L4.08 32.636H8a2 2 0 0 0 1.954-1.571l1.654-7.538H30.46l1.655 7.538a2 2 0 0 0 1.954 1.571h18.367L41.773 47.07a2.003 2.003 0 0 0-.378.964l-1.377 12.171a2 2 0 0 0 2.786 2.059l11.23-4.893a1.998 1.998 0 0 0 .809-.645l17.796-24.09h9.409zM45.24 49.63l6.138 4.535-6.997 3.048zm8.763 1.501l-6.635-4.902 24.955-33.782 6.636 4.903zM74.7 9.231l3.275-4.434L84.61 9.7l-3.274 4.433z"/></svg>