<svg xmlns="http://www.w3.org/2000/svg" viewBox="0 0 21 21"><path d="M18.5 6h-11c-.3 0-.5-.2-.5-.5s.2-.5.5-.5h11c.3 0 .5.2.5.5s-.2.5-.5.5zM18.5 10h-16c-.3 0-.5-.2-.5-.5s.2-.5.5-.5h16c.3 0 .5.2.5.5s-.2.5-.5.5zM18.5 14h-16c-.3 0-.5-.2-.5-.5s.2-.5.5-.5h16c.3 0 .5.2.5.5s-.2.5-.5.5zM18.5 18h-16c-.3 0-.5-.2-.5-.5s.2-.5.5-.5h16c.3 0 .5.2.5.5s-.2.5-.5.5zM2.6 8c-.2 0-.3-.1-.4-.2-.2-.2-.1-.5.1-.7l2.3-1.6-2.3-1.6c-.2-.2-.3-.5-.1-.7.1-.2.4-.3.7-.1l2.8 2c.1.1.2.2.2.4s-.1.3-.2.4l-2.8 2c-.1.1-.2.1-.3.1z"/></svg>