<svg xmlns="http://www.w3.org/2000/svg" viewBox="0 0 21 21"><path d="M11.6 20.4c-.1 0-.2 0-.2-.1l-3.3-1.9c-.1-.1-.2-.2-.2-.3 0-.1 0-.3.1-.4.2-.3.2-.7.1-1-.1-.4-.3-.7-.7-.8-.7-.4-1.5-.2-1.9.5-.1.2-.4.3-.7.2l-3.3-1.9c-.1-.1-.2-.2-.2-.3 0-.1 0-.3.1-.4L8.9.9c.1-.2.4-.3.7-.2l3.3 1.9c.1.1.2.2.2.3 0 .1 0 .3-.1.4-.2.3-.2.7-.1 1 .1.4.3.7.7.9.7.4 1.5.2 1.9-.5.1-.2.4-.3.7-.2l3.3 1.9c.1.1.2.2.2.3 0 .1 0 .3-.1.4l-7.7 13.1c.1.1-.1.2-.3.2zM9 17.8l2.5 1.4L18.6 7l-2.5-1.4c-.7.8-2 1-3 .5-.6-.3-1-.8-1.1-1.5-.1-.5-.1-.9 0-1.3L9.5 1.8 2.4 14l2.5 1.4c.7-.8 2-1 3-.5.6.3 1 .8 1.1 1.5.1.5.1 1 0 1.4z"/></svg>