<svg width="40" height="40" viewBox="0 0 40 40" fill="none" xmlns="http://www.w3.org/2000/svg">
<rect width="40" height="40" rx="10" fill="white"/>
<path d="M22.6271 14.6057C23.3719 14.9684 24.2697 14.6587 24.6324 13.9139C24.7533 13.6657 25.0526 13.5624 25.3009 13.6833L27.998 14.9968C28.4945 15.2386 28.701 15.8372 28.4592 16.3337L22.3294 28.9204C22.0876 29.417 21.489 29.6235 20.9925 29.3816L18.2954 28.0681C18.0471 27.9472 17.9439 27.6479 18.0648 27.3997C18.4275 26.6549 18.1177 25.757 17.3729 25.3943C16.6281 25.0316 15.7303 25.3413 15.3676 26.0861C15.2467 26.3344 14.9474 26.4376 14.6992 26.3167L12.002 25.0032C11.5055 24.7614 11.299 24.1629 11.5408 23.6663L17.6706 11.0796C17.9124 10.583 18.511 10.3766 19.0075 10.6184L21.7047 11.9319C21.9529 12.0528 22.0562 12.3521 21.9353 12.6004C21.5725 13.3452 21.8823 14.243 22.6271 14.6057Z" fill="#0075FF"/>
<path d="M14.6057 17.3729L11.5408 23.6663C11.299 24.1628 11.5055 24.7614 12.002 25.0032L14.6992 26.3167C14.9474 26.4376 15.2467 26.3344 15.3676 26.0861C15.7303 25.3413 16.6282 25.0316 17.373 25.3943C18.1178 25.757 18.4275 26.6548 18.0648 27.3996C17.9439 27.6479 18.0471 27.9472 18.2954 28.0681L20.9925 29.3816C21.489 29.6234 22.0876 29.417 22.3294 28.9204L25.3943 22.6271L14.6057 17.3729Z" fill="#005BC7"/>
</svg>
